<svg xmlns="http://www.w3.org/2000/svg" version="1.1" xmlns:xlink="http://www.w3.org/1999/xlink" xmlns:svgjs="http://svgjs.dev/svgjs" width="1000" height="646" viewBox="0 0 1000 646"><g transform="matrix(1,0,0,1,-0.6060606060606233,95.84388020833336)"><svg viewBox="0 0 396 256" data-background-color="#ffffff" preserveAspectRatio="xMidYMid meet" height="646" width="1000" xmlns="http://www.w3.org/2000/svg" xmlns:xlink="http://www.w3.org/1999/xlink"><g id="tight-bounds" transform="matrix(1,0,0,1,0.2400000000000091,4.399999999999977)"><svg viewBox="0 0 395.52 247.2" height="247.2" width="395.52"><g><svg></svg></g><g><svg viewBox="0 0 395.52 247.2" height="247.2" width="395.52"><g transform="matrix(1,0,0,1,98.84854491017963,47.215199999999996)"><svg viewBox="0 0 197.82291017964073 152.7696" height="152.7696" width="197.82291017964073"><g><svg viewBox="0 0 197.82291017964073 152.7696" height="152.7696" width="197.82291017964073"><g><svg viewBox="0 0 197.82291017964073 152.7696" height="152.7696" width="197.82291017964073"><g><svg viewBox="0 0 197.82291017964073 152.7696" height="152.7696" width="197.82291017964073"><g id="textblocktransform"><svg viewBox="0 0 197.82291017964073 152.7696" height="152.7696" width="197.82291017964073" id="textblock"><g><svg viewBox="0 0 197.82291017964073 152.7696" height="152.7696" width="197.82291017964073"><g transform="matrix(1,0,0,1,0,0)"><svg width="197.82291017964073" viewBox="1.399999976158142 -33.400001525878906 43.25 33.400001525878906" height="152.7696" data-palette-color="#ee3e38"><path d="M44.65-1.2L44.65 0 30.6 0 30.6-1.2 34.4-1.65 33.1-27.3 23.05 0 20.4 0 8.4-27.05 7.45-2.45 11.65-1.2 11.65 0 1.4 0 1.4-1.2 5.55-2.65 6.55-31.75 2.3-32.25 2.3-33.4 12.25-33.4 23.55-7.05 33.3-33.4 43.95-33.4 44-32.25 39.7-31.75 40.8-1.65 44.65-1.2Z" opacity="1" transform="matrix(1,0,0,1,0,0)" fill="#ee3e38" class="wordmark-text-0" data-fill-palette-color="primary" id="text-0"></path></svg></g></svg></g></svg></g></svg></g><g></g></svg></g></svg></g></svg></g><g><path d="M144.267 11.15A98.911 98.911 0 0 1 251.253 11.15L237.476 11.15A85.135 85.135 0 0 0 158.044 11.15L144.267 11.15M144.267 236.05A98.911 98.911 0 0 0 251.253 236.05L237.476 236.05A85.135 85.135 0 0 1 158.044 236.05L144.267 236.05" fill="#ee3e38" stroke="transparent" data-fill-palette-color="tertiary"></path></g></svg></g><defs></defs></svg><rect width="395.52" height="247.2" fill="none" stroke="none" visibility="hidden"></rect></g></svg></g></svg>